<?xml version="1.0" encoding="UTF-8" standalone="no"?> <svg width="512" height="512" viewBox="0 0 512 512" fill="none" xmlns="http://www.w3.org/2000/svg">
<path d="M150 348C154.222 352.889 157.889 360.889 161 372C171.889 366.667 195.556 365 232 367C268.445 369 303.445 379.333 337 398C350.334 387.167 359.19 380.899 363.569 379.196C309.716 367.034 267.508 331.684 272 272C275.112 230.667 296.445 204 336 192C352.6 169.736 373.933 159.069 400 160C437.333 161.333 477.801 180.025 480 224C481.333 250.667 435.528 244.774 400 240C364.472 235.226 345.423 293.179 400 304C477.333 319.333 493.632 382.877 464 432C445.055 463.406 407.195 481.74 368 480C273 480 262.728 447.936 192 464C39.0002 498.75 -23.9998 384.75 80.0002 256C147.352 172.619 124.792 123.189 96.0002 112C67.2082 100.811 86.3772 76.6599 144 112C201.623 147.34 192.957 229.164 176 272C165.356 298.887 152.487 319.329 137.392 333.326C143.438 336.563 143.667 340.667 150 348Z" fill="#71BC43"/>
<path d="M137 379C169.155 368.415 177.333 364 232 367C286.667 370 333.844 385.734 352 416C352 399.563 372 383 400 384C308 379.75 267.508 331.684 272 272C275.112 230.667 296.445 204 336 192C352.6 169.736 373.933 159.069 400 160C437.333 161.333 461.801 180.025 464 224C465.333 250.667 419.528 244.774 384 240C348.472 235.226 329.423 293.179 384 304C461.333 319.333 477.632 382.877 448 432C429.055 463.406 391.195 481.74 352 480C257 480 262.728 447.936 192 464C39.0002 498.75 -23.9998 384.75 80.0002 256C147.352 172.619 124.792 123.189 96.0002 112C67.2082 100.811 86.3772 76.6599 144 112C201.623 147.34 193.941 211.785 181 256C173 283.333 132.667 318 112 320C118.045 323.236 139.25 352.25 137 379Z" fill="#ABD755"/>
<path d="M152 456.5C165.255 456.5 176 445.755 176 432.5C176 419.245 165.255 408.5 152 408.5C138.745 408.5 128 419.245 128 432.5C128 445.755 138.745 456.5 152 456.5Z" fill="#FFEB66"/>
<path d="M264 437C277.255 437 288 426.255 288 413C288 399.745 277.255 389 264 389C250.745 389 240 399.745 240 413C240 426.255 250.745 437 264 437Z" fill="#FFEB66"/>
<path d="M400 461C413.255 461 424 450.255 424 437C424 423.745 413.255 413 400 413C386.745 413 376 423.745 376 437C376 450.255 386.745 461 400 461Z" fill="#FFEB66"/>
<path d="M392 366.008C405.255 366.008 416 355.262 416 342.008C416 328.753 405.255 318.008 392 318.008C378.745 318.008 368 328.753 368 342.008C368 355.262 378.745 366.008 392 366.008Z" fill="#FFEB66"/>
<path d="M320 274.89C333.255 274.89 344 264.145 344 250.89C344 237.635 333.255 226.89 320 226.89C306.745 226.89 296 237.635 296 250.89C296 264.145 306.745 274.89 320 274.89Z" fill="#FFEB66"/>
<path d="M88 380C101.255 380 112 369.255 112 356C112 342.745 101.255 332 88 332C74.7452 332 64 342.745 64 356C64 369.255 74.7452 380 88 380Z" fill="#FFEB66"/>
<path d="M320 332C326.627 332 332 326.627 332 320C332 313.373 326.627 308 320 308C313.373 308 308 313.373 308 320C308 326.627 313.373 332 320 332Z" fill="#FFEB66"/>
<path d="M452 404C458.627 404 464 398.627 464 392C464 385.373 458.627 380 452 380C445.373 380 440 385.373 440 392C440 398.627 445.373 404 452 404Z" fill="#FFEB66"/>
<path d="M330.5 456.5C337.127 456.5 342.5 451.127 342.5 444.5C342.5 437.873 337.127 432.5 330.5 432.5C323.873 432.5 318.5 437.873 318.5 444.5C318.5 451.127 323.873 456.5 330.5 456.5Z" fill="#FFEB66"/>
<path d="M196 404C202.627 404 208 398.627 208 392C208 385.373 202.627 380 196 380C189.373 380 184 385.373 184 392C184 398.627 189.373 404 196 404Z" fill="#FFEB66"/>
<path d="M84 437C90.6274 437 96 431.627 96 425C96 418.373 90.6274 413 84 413C77.3726 413 72 418.373 72 425C72 431.627 77.3726 437 84 437Z" fill="#FFEB66"/>
<path d="M96 298.807C102.627 298.807 108 293.434 108 286.807C108 280.179 102.627 274.807 96 274.807C89.3726 274.807 84 280.179 84 286.807C84 293.434 89.3726 298.807 96 298.807Z" fill="#FFEB66"/>
<path d="M152 280C158.627 280 164 274.627 164 268C164 261.373 158.627 256 152 256C145.373 256 140 261.373 140 268C140 274.627 145.373 280 152 280Z" fill="#FFEB66"/>
<path d="M140 221.445C146.627 221.445 152 216.072 152 209.445C152 202.817 146.627 197.445 140 197.445C133.373 197.445 128 202.817 128 209.445C128 216.072 133.373 221.445 140 221.445Z" fill="#FFEB66"/>
<path d="M94.6376 89.4624C91.4276 89.4742 88.6389 89.9251 86.2407 90.7874C83.4999 91.7729 81.1564 93.4137 79.8282 95.8515C78.5 98.2892 78.5157 101.316 79.5501 103.831C81.6189 108.861 86.7595 112.701 94.5501 115.728C107.421 120.73 119.282 134.242 120.056 157.064C120.83 179.886 110.185 212.266 76.8891 253.486C63.5402 270.012 52.8755 286.335 44.8313 302.189C44.5935 302.658 44.4503 303.168 44.4099 303.692C44.3695 304.216 44.4327 304.743 44.5958 305.242C44.759 305.742 45.0189 306.204 45.3608 306.603C45.7027 307.002 46.1198 307.33 46.5884 307.568C47.0569 307.806 47.5677 307.949 48.0916 307.989C48.6155 308.03 49.1422 307.967 49.6417 307.803C50.1412 307.64 50.6036 307.38 51.0026 307.038C51.4017 306.697 51.7294 306.279 51.9673 305.811C59.7231 290.525 70.0719 274.656 83.111 258.514C117.167 216.353 128.916 182.329 128.05 156.794C127.184 131.258 113.371 114.459 97.4501 108.272C90.8446 105.705 87.5841 102.33 86.9501 100.789C86.6331 100.018 86.721 99.9207 86.8532 99.678C86.9854 99.4353 87.4897 98.8395 88.9469 98.3155C91.8614 97.2676 98.1414 96.98 107.108 99.3812C116.074 101.782 127.759 106.734 141.908 115.411C169.47 132.315 181.148 160.163 183.986 189.572C186.824 218.981 180.525 249.702 172.281 270.526C162.357 295.595 150.534 314.756 137.013 328.137C128.45 321.844 117.743 317.324 104.389 316.019C104.257 316.004 104.124 315.995 103.991 315.994C102.953 315.978 101.949 316.367 101.192 317.078C100.436 317.789 99.985 318.767 99.9357 319.804C99.8864 320.841 100.242 321.856 100.928 322.636C101.614 323.416 102.576 323.898 103.611 323.981C116.552 325.246 126.558 329.714 134.345 335.939C134.648 336.293 135.011 336.592 135.417 336.822C145.697 345.48 151.943 357.241 155.934 368.53C135.382 374.063 118.287 383.358 108.672 397.781C108.371 398.218 108.159 398.71 108.05 399.23C107.941 399.749 107.937 400.285 108.037 400.806C108.137 401.327 108.339 401.823 108.633 402.265C108.926 402.707 109.305 403.086 109.746 403.38C110.188 403.675 110.683 403.878 111.204 403.979C111.725 404.08 112.261 404.076 112.781 403.968C113.3 403.86 113.793 403.65 114.23 403.349C114.668 403.049 115.041 402.665 115.328 402.219C124.225 388.873 141.972 379.678 164.345 374.681C186.718 369.685 213.482 368.869 239.603 371.47C240.129 371.528 240.66 371.481 241.168 371.332C241.675 371.183 242.148 370.934 242.558 370.602C242.969 370.269 243.31 369.858 243.561 369.392C243.811 368.927 243.968 368.417 244.02 367.891C244.073 367.364 244.02 366.833 243.866 366.328C243.712 365.822 243.459 365.352 243.122 364.944C242.785 364.537 242.371 364.2 241.903 363.954C241.435 363.708 240.924 363.557 240.397 363.509C233.693 362.842 226.948 362.39 220.234 362.17C200.531 361.525 181.1 362.882 163.758 366.628C159.839 355.301 153.384 342.991 143.174 333.3C157.515 318.921 169.634 298.947 179.719 273.473C188.432 251.462 194.946 219.852 191.95 188.805C188.954 157.758 176.153 127.025 146.092 108.589C131.429 99.5961 119.109 94.3149 109.175 91.6546C104.208 90.3244 99.8459 89.6146 96.0391 89.4843C95.5633 89.468 95.0961 89.4607 94.6376 89.4624ZM397.642 155.948C371.938 155.755 350.235 166.915 333.652 188.572C293.663 201.131 271.185 229.555 268.013 271.7C265.079 310.675 281.713 340.294 308.242 359.526C321.119 368.862 336.275 375.837 352.695 380.55C346.01 384.05 340.476 388.941 336.8 393.156C331.68 389.605 325.819 386.347 319.394 383.359C301.822 375.187 279.845 369.095 256.603 365.55C256.34 365.506 256.073 365.489 255.806 365.498C254.805 365.533 253.853 365.941 253.139 366.644C252.425 367.346 252 368.291 251.948 369.291C251.897 370.291 252.223 371.275 252.861 372.046C253.5 372.818 254.405 373.322 255.397 373.459C278.027 376.911 299.391 382.878 316.022 390.612C332.653 398.347 344.306 407.931 348.306 417.537C348.714 418.517 349.494 419.295 350.475 419.699C351.456 420.103 352.558 420.101 353.538 419.694C354.517 419.286 355.295 418.506 355.699 417.525C356.104 416.544 356.102 415.442 355.694 414.462C353.188 408.446 348.865 403.014 343.175 398.089C348.216 392.725 358.117 385.271 367.306 384.092C380.445 386.71 394.162 388 408 388C408.53 388.007 409.056 387.909 409.548 387.712C410.04 387.514 410.488 387.221 410.865 386.849C411.243 386.476 411.543 386.033 411.747 385.544C411.952 385.055 412.057 384.53 412.057 384C412.057 383.47 411.952 382.945 411.747 382.456C411.543 381.967 411.243 381.523 410.865 381.151C410.488 380.779 410.04 380.486 409.548 380.288C409.056 380.09 408.53 379.992 408 380C394.987 380 382.115 378.794 369.811 376.4C369.238 376.12 368.606 375.981 367.969 375.995C367.922 375.997 367.875 376 367.828 376.003C347.143 371.741 328.152 364.079 312.938 353.05C288.235 335.142 273.243 308.762 275.988 272.3C279.006 232.203 298.8 207.466 337.163 195.828C337.98 195.579 338.696 195.076 339.206 194.391C355.19 172.952 374.957 163.109 399.858 163.998C417.91 164.643 436.682 169.538 450.913 179.306C464.362 188.538 473.87 201.849 475.752 220.836C453.836 225.284 429.116 222.53 401.391 212.25C400.892 212.057 400.36 211.966 399.825 211.983C398.893 212.012 398.001 212.366 397.303 212.983C396.604 213.6 396.143 214.442 395.999 215.363C395.855 216.283 396.037 217.226 396.513 218.027C396.99 218.828 397.731 219.437 398.609 219.75C426.641 230.144 452.357 233.326 475.581 229.02C474.862 231.644 473.28 233.458 470.831 235.098C467.115 237.588 461.003 239.2 453.502 239.803C438.498 241.008 418.287 238.422 400.533 236.036C380.558 233.352 364.944 248.34 362.258 265.536C360.915 274.134 362.793 283.442 368.819 291.214C374.844 298.986 384.868 305.077 399.224 307.923C418.716 311.789 434.03 318.753 445.553 327.661C445.969 327.982 446.444 328.218 446.951 328.356C447.458 328.494 447.987 328.531 448.508 328.464C449.029 328.397 449.532 328.229 449.988 327.968C450.444 327.707 450.844 327.358 451.165 326.943C451.486 326.527 451.723 326.052 451.86 325.545C451.998 325.039 452.035 324.509 451.968 323.988C451.901 323.467 451.733 322.964 451.472 322.508C451.211 322.053 450.863 321.652 450.447 321.331C437.806 311.559 421.284 304.143 400.777 300.076C387.844 297.512 379.783 292.301 375.141 286.312C370.498 280.324 369.124 273.415 370.163 266.769C372.239 253.476 383.914 241.874 399.467 243.964C417.241 246.352 437.694 249.098 454.142 247.776C462.366 247.116 469.679 245.5 475.286 241.744C480.893 237.987 484.384 231.6 483.994 223.8C483.994 223.795 483.992 223.791 483.992 223.786C483.991 223.758 483.989 223.73 483.988 223.701C482.8 200.57 471.303 183.6 455.439 172.711C439.552 161.806 419.424 156.69 400.142 156.001C399.305 155.972 398.471 155.955 397.642 155.948ZM140 193.445C131.211 193.445 124 200.656 124 209.445C124 218.234 131.211 225.445 140 225.445C148.789 225.445 156 218.234 156 209.445C156 200.656 148.789 193.445 140 193.445ZM140 201.445C144.466 201.445 148 204.98 148 209.445C148 213.911 144.466 217.445 140 217.445C135.534 217.445 132 213.911 132 209.445C132 204.98 135.534 201.445 140 201.445ZM320 222.891C304.583 222.891 292 235.474 292 250.891C292 266.307 304.583 278.891 320 278.891C335.417 278.891 348 266.307 348 250.891C348 235.474 335.417 222.891 320 222.891ZM320 230.891C331.093 230.891 340 239.797 340 250.891C340 261.984 331.093 270.891 320 270.891C308.907 270.891 300 261.984 300 250.891C300 239.797 308.907 230.891 320 230.891ZM152 252C143.211 252 136 259.211 136 268C136 276.789 143.211 284 152 284C160.789 284 168 276.789 168 268C168 259.211 160.789 252 152 252ZM152 260C156.466 260 160 263.534 160 268C160 272.466 156.466 276 152 276C147.534 276 144 272.466 144 268C144 263.534 147.534 260 152 260ZM96.0001 270.806C87.2109 270.806 80.0001 278.017 80.0001 286.806C80.0001 295.595 87.2109 302.806 96.0001 302.806C104.789 302.806 112 295.595 112 286.806C112 278.017 104.789 270.806 96.0001 270.806ZM96.0001 278.806C100.466 278.806 104 282.34 104 286.806C104 291.272 100.466 294.806 96.0001 294.806C91.5344 294.806 88.0001 291.272 88.0001 286.806C88.0001 282.34 91.5344 278.806 96.0001 278.806ZM320 304C311.211 304 304 311.211 304 320C304 328.789 311.211 336 320 336C328.789 336 336 328.789 336 320C336 311.211 328.789 304 320 304ZM320 312C324.466 312 328 315.534 328 320C328 324.466 324.466 328 320 328C315.534 328 312 324.466 312 320C312 315.534 315.534 312 320 312ZM392 314.008C376.583 314.008 364 326.591 364 342.008C364 357.424 376.583 370.008 392 370.008C407.417 370.008 420 357.424 420 342.008C420 326.591 407.417 314.008 392 314.008ZM40.9344 315.95C40.1492 315.969 39.387 316.219 38.743 316.669C38.0989 317.118 37.6014 317.748 37.3126 318.478C16.4649 369.166 22.4869 414.408 50.7673 442.883C79.0476 471.358 128.594 482.503 192.888 467.9C227.65 460.004 246.742 463.875 269.899 469.85C293.025 475.817 319.989 483.974 367.822 483.995C408.375 485.795 447.618 466.902 467.425 434.067C486.022 403.238 487.311 366.402 467.244 338.595C466.94 338.161 466.553 337.791 466.104 337.507C465.656 337.224 465.156 337.032 464.633 336.944C464.111 336.855 463.575 336.872 463.059 336.992C462.542 337.112 462.055 337.334 461.625 337.644C461.195 337.954 460.831 338.347 460.554 338.799C460.277 339.252 460.093 339.754 460.012 340.279C459.931 340.803 459.955 341.338 460.083 341.852C460.211 342.367 460.44 342.851 460.756 343.276C478.773 368.242 477.814 401.356 460.575 429.933C442.492 459.91 406.015 477.684 368.178 476.005C368.119 476.002 368.059 476 368 476C320.95 476 295.308 468.144 271.897 462.103C248.486 456.062 227.078 451.931 191.113 460.1C128.539 474.312 82.1588 463.134 56.4454 437.244C30.7319 411.353 24.6947 370.188 44.711 321.522C44.9744 320.906 45.0789 320.233 45.0148 319.566C44.9507 318.899 44.7201 318.259 44.3441 317.705C43.9682 317.15 43.459 316.699 42.8633 316.392C42.2675 316.085 41.6043 315.933 40.9344 315.95V315.95ZM392 322.008C403.093 322.008 412 330.915 412 342.008C412 353.101 403.093 362.008 392 362.008C380.907 362.008 372 353.101 372 342.008C372 330.915 380.907 322.008 392 322.008ZM88.0001 328C72.5835 328 60.0001 340.583 60.0001 356C60.0001 371.416 72.5835 384 88.0001 384C103.417 384 116 371.416 116 356C116 340.583 103.417 328 88.0001 328ZM88.0001 336C99.0931 336 108 344.907 108 356C108 367.093 99.0931 376 88.0001 376C76.907 376 68.0001 367.093 68.0001 356C68.0001 344.907 76.907 336 88.0001 336ZM196 376C187.211 376 180 383.211 180 392C180 400.789 187.211 408 196 408C204.789 408 212 400.789 212 392C212 383.211 204.789 376 196 376ZM452 376C443.211 376 436 383.211 436 392C436 400.789 443.211 408 452 408C460.789 408 468 400.789 468 392C468 383.211 460.789 376 452 376ZM196 384C200.466 384 204 387.534 204 392C204 396.466 200.466 400 196 400C191.534 400 188 396.466 188 392C188 387.534 191.534 384 196 384ZM452 384C456.466 384 460 387.534 460 392C460 396.466 456.466 400 452 400C447.534 400 444 396.466 444 392C444 387.534 447.534 384 452 384ZM264 385C248.583 385 236 397.583 236 413C236 428.416 248.583 441 264 441C279.417 441 292 428.416 292 413C292 397.583 279.417 385 264 385ZM264 393C275.093 393 284 401.907 284 413C284 424.093 275.093 433 264 433C252.907 433 244 424.093 244 413C244 401.907 252.907 393 264 393ZM152 404.5C136.583 404.5 124 417.083 124 432.5C124 447.916 136.583 460.5 152 460.5C167.417 460.5 180 447.916 180 432.5C180 417.083 167.417 404.5 152 404.5ZM84.0001 409C75.2109 409 68.0001 416.211 68.0001 425C68.0001 433.789 75.2109 441 84.0001 441C92.7892 441 100 433.789 100 425C100 416.211 92.7892 409 84.0001 409ZM400 409C384.583 409 372 421.583 372 437C372 452.416 384.583 465 400 465C415.417 465 428 452.416 428 437C428 421.583 415.417 409 400 409ZM152 412.5C163.093 412.5 172 421.407 172 432.5C172 443.593 163.093 452.5 152 452.5C140.907 452.5 132 443.593 132 432.5C132 421.407 140.907 412.5 152 412.5ZM84.0001 417C88.4657 417 92.0001 420.534 92.0001 425C92.0001 429.466 88.4657 433 84.0001 433C79.5344 433 76.0001 429.466 76.0001 425C76.0001 420.534 79.5344 417 84.0001 417ZM400 417C411.093 417 420 425.907 420 437C420 448.093 411.093 457 400 457C388.907 457 380 448.093 380 437C380 425.907 388.907 417 400 417ZM330.5 428.5C321.711 428.5 314.5 435.711 314.5 444.5C314.5 453.289 321.711 460.5 330.5 460.5C339.289 460.5 346.5 453.289 346.5 444.5C346.5 435.711 339.289 428.5 330.5 428.5ZM330.5 436.5C334.966 436.5 338.5 440.034 338.5 444.5C338.5 448.966 334.966 452.5 330.5 452.5C326.034 452.5 322.5 448.966 322.5 444.5C322.5 440.034 326.034 436.5 330.5 436.5Z" fill="black"/>
</svg>
